<svg xmlns="http://www.w3.org/2000/svg" viewBox="0 0 220 35.81"><defs><style>.cls-1{fill:#fff;}</style></defs><g id="レイヤー_2" data-name="レイヤー 2"><g id="フッター"><path class="cls-1" d="M20.1,1c2,.1,4,.05,6,.05.2.35.05,1,.1,1.41-.85.29-1.55-.11-2.36.34a33,33,0,0,0,.1,4.47c.75.75,2.86-.65,2.56,1.2,0,6.37.05,12.69,0,19.06a49.17,49.17,0,0,0-6.07,0c-.35.3,0,1-.55,1.16l-3.11,0c-.35.26,0,.56.16.76l1.35,1.25c1.75.45,2.24-1.4,3.05-2.41.76.25,1.11,1.31,1.61,1.91a2.88,2.88,0,0,0,.55.91c.75-.26,1.71-.11,2.41-.61a7.71,7.71,0,0,1,4-5.22c.3-1-.3-2-.15-3-.2-1.35.5-2.51.5-3.61a9.43,9.43,0,0,1-3.06-6.33c1.91-.2,3.71.91,5.27,2.11l.19,0a22.23,22.23,0,0,1,1.17-2.06c1.5,1.05,2.4,3,3,4.77,1.16-.7,1,.85,1.31,1.4A9.35,9.35,0,0,1,36,26.14a8.26,8.26,0,0,1-5.82,6.37c-.85,0-1.36.85-2.1,1.05a12.3,12.3,0,0,1-4.87,1c-.71.51-1.36,1.21-2.21,1.25-.65-1-1.25-2.3-2.6-2.35l-1.76,2.35a8.1,8.1,0,0,1-2.11-.8c-.2-.95-1.35-.15-2-.24a10,10,0,0,1-6.42-2.46c0-.31.44-.11.55-.4C6.16,31.35,5.4,31.3,4.8,31a7.7,7.7,0,0,1-4-5.31c.3-.36,1-.05,1.26-.46A8.67,8.67,0,0,1,.49,16.86a8.28,8.28,0,0,1,1.21.69c.4-.63.14-1.59.45-2.35a7.4,7.4,0,0,1,1.4-2.6c1,.39,1.25,1.65,1.85,2.5C6.81,13.45,8.66,11.69,11,12a2.45,2.45,0,0,1-.15,1.76,9.71,9.71,0,0,1-3.16,4.61,13.37,13.37,0,0,1,.65,6.42A8.45,8.45,0,0,1,12.88,31a2.64,2.64,0,0,0,2,.5C14.59,30,16.44,29,16,27.49a31.57,31.57,0,0,1-4.37-.25c.25-6.22.05-13.44,0-19.66l2.52-.2.19-.3-.15-4.32c-.75-.5-2.26.66-2.36-.8.1-.25-.15-.65.21-.75l5.67-.15c.35-.2,0-.65.24-1a9.87,9.87,0,0,1,2-.1ZM18.54.31c-.59,0,0,1-.75,1.05l-5.61.21c-.25,1.39,1.6.34,2.25.9a26.77,26.77,0,0,1,.26,4.86l-.26.5a5,5,0,0,0-2.45.3v5.12l.2.24c.25-.1.75.21.8-.24-.1-1.26,0-2.56-.1-3.86,0-.31.15-.81.55-.6v.05c3.56,0,7.12-.05,10.48-.11,2,.06.45,2.21,1,3.31.2.46-.46,1,.1,1.35A1.8,1.8,0,0,0,26,13.25a35.68,35.68,0,0,0,0-5.17c-.75-.4-1.86,0-2.56-.4,0-1.56-.2-3.06-.05-4.72s2.11.11,2.46-1.34c-1.71-.36-4,0-5.81-.16l-.36-.3c.25-.9-.6-.9-1.16-.85m-2.6,2.21a.47.47,0,0,0,.05.65,30.54,30.54,0,0,0,6,0c-.05-.31.1-.51-.05-.76-2.06.11-3.86,0-6,.16m3.36,2.1c-1.1.15-2.31,0-3.46.21.05.25-.05.54.15.75a42,42,0,0,0,5.92-.15c.2-.31.05-.56,0-.86-.86-.05-1.85.15-2.61,0M19,6.78a21.6,21.6,0,0,1-3.11.15c0,.3-.25.65,0,1,1.9.15,4.11-.3,6,0,.35-.3.05-.7.05-1-.76-.15-2,.09-3,0m4.61,3.16c-3,0-6.17,0-9.18.14a22.22,22.22,0,0,0,0,3.27c2.85.4,6.05-.2,9,0l.35-.19,0-2.41Zm-1.16,1.2c-2.2-.05-4.56,0-6.86.1-.1.3-.16.75.05.95l6.81,0ZM5.76,15.36A2.3,2.3,0,0,0,6,17.16l1.21-1.35a39.14,39.14,0,0,1,3.16-3.42,6.08,6.08,0,0,0-4.61,3M28,12.74a8,8,0,0,0,2.21,2.71c.64.66,1.15,1.56,1.9,1.81-.16-.8.3-1.61,0-2.41A8.32,8.32,0,0,0,28,12.74M6.16,17.61c-.16.35-.35.75-.1,1.1l.5,0A9,9,0,0,0,10.67,13c-1.8,1.2-3.15,3.16-4.51,4.66m28-4.41L34.8,19l.15.19,1.4-1.7a8.11,8.11,0,0,0-2.2-4.31m-.71.15a8.38,8.38,0,0,0-.8,4.16A8,8,0,0,0,33.74,21c.41-.09.56-.6.76-.9-.11-2.26-.8-4.31-.8-6.52Zm-29.59,0,.7,8.53h.21l.79-2A10,10,0,0,0,4.1,13.39Zm23.88,0-.06.51c.66,2.46,2.51,5.07,5,5.92.15-.55-.35-1-.4-1.51-1.56-1.61-3.06-3.3-4.51-4.92M3.3,13.55a7.91,7.91,0,0,0-1.06,4.56C3,18.92,3.35,20,4.05,20.72c-.1-2.36-.5-4.91-.6-7.17Zm15.89,1.3c-.54.35-.69-.65-1.24-.55-.16.15-.3.3-.26.51,1.56.89-.9,1.3-.25,2.2.7.3,1-.6,1.46-.9.45-.06.55.54.85.7s.6.35.76,0-.45-.66-.71-1c-.61-.71.71-.61.6-1.3-.34-.86-.9,0-1.21.34m5.68-1.57c-.43,1.6-2.47.49-3.53,1.11a.87.87,0,0,0,.25,1c1.05,0,2.35-.43,3.34.12-.06.44.06.87-.37,1.12l-3.34-.06-.18.67c.92.93,2.53.38,3.83.5a1.53,1.53,0,0,1-.13,1.36,10.31,10.31,0,0,0-3.33.06c-.19.62,0,1.37.67,1.24,1.43-.13,2.54,0,3.9-.19l.06-6c.19-.87-.55-1.05-1.17-.93M12,14.55l.15,5.32c1,.25,2.15,0,3.21.15.25.05.65-.15.5-.5a.43.43,0,0,0-.36-.4c-.94-.25-2.7.75-2.6-.81.9-.45,1.91,0,2.86-.3,0-.3.15-.8-.15-1.05l-2.66.2-.15-.2a.81.81,0,0,1,.1-1,9.76,9.76,0,0,0,2.91-.26c-.05-.25.05-.55-.05-.8-.71-.09-1.86,0-2.66-.05,0-.6-.86-.7-1.1-.3M19,18.36c-.35-.25-.51-.75-.95-.85-1.46.2.44.85.09,1.51-.3.19-.35.65-.75.65-.05.25-.2.45.1.6.35.45.85-.1,1.1-.35.5-.65,1,.15,1.31.4a1,1,0,0,0,.66-.1c.34-.51-.31-.7-.61-1-.45-.65.54-.85.61-1.4-.45-.85-1.06.25-1.56.55m18.25-.81a8.86,8.86,0,0,0-3.5,8.28.41.41,0,0,0,.5-.09l3-7.38ZM.89,17.61l3,7.62.3.3A7.64,7.64,0,0,0,2.9,19.67c-.6-.7-1.06-1.76-2-2.06m-.35.5A7.86,7.86,0,0,0,1.05,23c.59.9,1.05,2.8,2.5,2.41C2.44,23.08,1.64,20.62.74,18.16Zm37,.4c-.9,2.36-1.8,4.77-2.71,7,.46-.15,1.11,0,1.51-.45a9.7,9.7,0,0,0,1.45-6.16ZM6.76,19C5.4,21.12,4.3,23.28,4.7,25.93c.25.06.56.41.85.26.31-2.41,1-4.82,1.31-7.17Zm.65.25c-.8,2.3-1,4.86-1.51,7.27.31.25.56.8,1.06.6a9.53,9.53,0,0,0,.45-7.87m23.53.3c.4,2.25,1.55,4.41,1.8,6.87.15-.05.35,0,.4-.15-.15-1.91.7-4.17-.7-5.87-.55-.15-.9-.75-1.5-.85m-.56.14a8.67,8.67,0,0,0,1.05,7.53c.31.2.61-.1.81-.35a35.42,35.42,0,0,0-1.86-7.18M26,20.77c-4.67,0-9.17.2-13.69.05l-.15.2c-.15,1.71-.06,3.81-.1,5.62,0,.46.54.4.85.3.25-1.66,0-3.51.25-5.17,3.81.1,7.52-.4,11.64-.05L25,22c0,1.69.16,3.3.11,5.06a.6.6,0,0,0,.8-.15Zm-9.58,2.15c-.85.36-.1,1.51-.45,2.16.65.61,1.5,0,2.26.36a.86.86,0,0,1,0,.85L15,26.34c-.31-1,.1-2.11-.1-3.16L14.78,23c-.24,0-.6-.11-.75.15v3.71a17.57,17.57,0,0,0,4,0,.43.43,0,0,1,.25.45c-.41.3-.86.15-1.36.1s-.45.55-.45.85l3.26-.05c.25-.25-.05-.75.2-1,1.15-.45,2.91.2,4.12-.3.29-1.3-.06-2.25.05-3.61l-.16-.3a3.79,3.79,0,0,0-.8.15v2.7c-1,.66-2.36,0-3.41.31v-.91l1-.2c.46-.19,1,.5,1.41-.15A5.76,5.76,0,0,0,22,23c-1.9-.15-3.71.2-5.52-.11m4.51.86c-1.25.15-2.51-.11-3.76.1v.35l3.51.1c.15,0,.4-.15.3-.4ZM8.07,25.53A6.81,6.81,0,0,0,9.67,31a2,2,0,0,0,1.21-.1,18.72,18.72,0,0,0-2-4.06c-.31-.4-.41-1.05-.8-1.26m.8,0a46,46,0,0,0,2.6,5.27c.35.15.76.31,1,0a7.53,7.53,0,0,0-3.65-5.27m-7.37.16,0,.25c2.36,1.91,4.92,3.46,7.33,5.17.15,0,.19-.11.19-.31C7.76,28.1,4.8,25.53,1.5,25.74m24.67,5,1,.05c.91-1.6,1.76-3.26,2.52-4.92a6.63,6.63,0,0,0-3.57,4.87m8.93-4.82c-2.46.81-5.07,2.71-5.62,5.42h.35L35,26.23Zm-4.86.21c-.76,1.3-1.47,2.7-2.27,4.06l-.09.75L29,31.1a7.59,7.59,0,0,0,1.21-5m-28.8.3c.2,1.76,1.71,3.06,3.11,4,1.16.4,2.31,1.61,3.52.9.09-.05,0-.19,0-.3C5.76,29.65,3.65,28,1.44,26.44m28.85,4.91a1.14,1.14,0,0,0,.09.6,7.51,7.51,0,0,0,5.06-5.46c-1.74,1.45-3.4,3.21-5.15,4.86M7.52,27c-.06.2-.46.35-.26.65.06.15.3.35.45.15a1.68,1.68,0,0,0-.19-.8m23.21.06-.15,1.19c.15.05.25-.15.36-.25.45-.3,0-.7-.21-.94m-9.38,1.79C21.05,30,19,30.7,20.06,32.06a4.44,4.44,0,0,0,2.8-1,5.81,5.81,0,0,0-1.51-2.16m-5.26.41c-.2.75-1.55,1.55-.6,2.25.7.25,1.4,1.21,2.2.76.51-1.46-.8-2.21-1.6-3m3.36,1.75c-.41-.15-.8.3-1.2.05a3,3,0,0,0,0,2.11c.46-.35.86.56,1.16-.1a4.76,4.76,0,0,0,0-2.06m7,.2A8.68,8.68,0,0,0,21,32.76c0,.2.31.1.41.3,2.5-.4,5-.75,7.47-1.11l.25-.24a7,7,0,0,0-2.71-.46M9,31.61a3.88,3.88,0,0,0-1.81.59c2.76.51,5.72.46,8.58,1,.2,0,.55-.3.5-.6-2.2-.76-4.77-1.56-7.27-1m20.16.65c-2.36.4-4.66.7-6.92,1.15,0,.3.35.45.55.65a9.77,9.77,0,0,0,6.37-1.6Zm-21.66.4-.16.15c1.91,1.56,4.76,1.75,7.23,1.45.25-.2.75-.35.7-.8-2.51-.25-5.16-.45-7.77-.8m12.58.15c-1.15,1,.75,1.56.95,2.41.65.5,1.06-.45,1.51-.76-.55-.8-1.66-1-2.46-1.65m-2.61.09c-1.1-.09-2,1-2.5,1.87a2.1,2.1,0,0,0,1.5.6,4.86,4.86,0,0,0,1.25-2Z"/><path class="cls-1" d="M61.48,21.07v5H47.59A12.62,12.62,0,0,1,44.41,34l-.93-.71A15,15,0,0,0,45,26.14V17.86h7v-.75c0-.33,0-.76-.08-1.13l2.6,0c.17,0,.33,0,.33.2a.79.79,0,0,1-.14.39v1.26h7.67V19H56.81v2.11Zm-7.43,7.35v1.1H51.36v2.63c1.18-.2,2-.33,2.77-.49l-.27,1.18c-1.3.43-4.48,1.14-6.07,1.49a1,1,0,0,1-.52.28c-.11,0-.17-.06-.25-.3l-.49-1.57a12.45,12.45,0,0,0,2.26-.22V27.75a8.93,8.93,0,0,0-.08-1.2l2.42,0c.15,0,.35,0,.35.25a1.11,1.11,0,0,1-.12.42v1.18ZM49.65,19H47.59v2.11h2.06Zm0,3.21H47.59V25h2.06ZM54.27,19H52.19v2.11h2.08Zm0,3.21H52.19V25h2.08Zm7.51,6.44c0,.06.1.12.1.18s-.16.18-.51.24a24.65,24.65,0,0,1-4,1.08v2.33c0,.54,0,.69.55.69h1.24c.57,0,1.06,0,1.16-2.53a7.64,7.64,0,0,0,2.28.88c-.26,1.38-.54,2.73-2.44,2.73H56.41c-1.41,0-1.67-.49-1.67-1.69V27.69c0-.24,0-.81-.06-1.16l2.4,0c.16,0,.36,0,.36.21a2.09,2.09,0,0,1-.1.42v1.71a10.29,10.29,0,0,0,3.18-1.83Zm-5-3.61h2.1V22.17h-2.1Z"/><path class="cls-1" d="M71.51,26.73a.27.27,0,0,1,.28.23.85.85,0,0,1-.18.37c-.18,3.84-2.59,6.2-7.35,7.08l-.8-1.08c3.28-.75,5.22-2.67,5.22-6.13a2.74,2.74,0,0,0-.06-.59Zm-4-10.64c.12,0,.18.1.18.22a.79.79,0,0,1-.06.29V26.94H65V17.37A11.52,11.52,0,0,0,65,16.05Zm13,10.05H70V16.57H80.49ZM78,17.65H72.63v3.08H78Zm-5.33,7.41H78V21.83H72.63Zm2.93,9.07c-1.9,0-2.22-.55-2.22-2v-4a14,14,0,0,0-.06-1.55l2.68,0c.05,0,.15.06.15.21a1.13,1.13,0,0,1-.06.36v5c0,.53,0,.84.87.84h1.47c.81,0,1.14-.17,1.56-3.42a5.94,5.94,0,0,0,2.37.79c-.67,3.73-1.65,3.73-2.91,3.73Z"/><path class="cls-1" d="M92.41,32.46V30.77a9.07,9.07,0,0,0-.06-1.1l2.4,0c.16,0,.3,0,.3.26a.81.81,0,0,1-.1.31v3.27H86v.82H83.51V30.79c0-.62,0-.8,0-1.12l2.32,0c.1,0,.29,0,.29.24a.46.46,0,0,1-.11.29v2.22h1.88V28.75H85V17.84h4.37a7.09,7.09,0,0,0,.88-2l2.71.49a.23.23,0,0,1,.2.22.38.38,0,0,1-.2.31c-.19.14-1,.89-1.16,1h7.45v6H87.66v1.35h13.87v1.08H87.66v1.36H101c-.33,6.46-1,6.74-3.79,6.74H95.91l-.43-1.18a7.17,7.17,0,0,0,1.24.14.86.86,0,0,0,1-.67,20.18,20.18,0,0,0,.51-4H90.43v3.71ZM87.66,20.3h8.88V18.94H87.66Zm8.88,1.1H87.66v1.39h8.88Z"/><path class="cls-1" d="M118.56,22.6h-5.11v1.81h5.7v1.1h-5.74a9.7,9.7,0,0,1-.32,1.9h8v1.1h-6.68c.69,1.42,2,3.6,6.9,4.9l-.67,1c-5.46-1.12-7.37-3.22-8.51-4.78-2.3,3.37-5.54,4.11-8.51,4.78l-.71-1c1.75-.4,5.57-1.52,7.06-4.94h-6.78v-1.1h7.17a9.09,9.09,0,0,0,.38-1.9H105v-1.1h5.73V22.6h-5.09v-.92h-2.2V18h7.31V17c0-.12,0-.85,0-1h2.66c.1,0,.23,0,.23.24a.78.78,0,0,1-.09.3V18h7.29v3.64h-2.28Zm-.46-1.1V19.14H106.16V21.5h4.59v-.81c0-.53,0-.82,0-1.12l2.55,0c.22,0,.22.14.22.22a.81.81,0,0,1-.06.33V21.5Z"/><path class="cls-1" d="M137.27,21c.1.06.14.1.14.15s-.08.14-.37.18a20.48,20.48,0,0,1-1.87,1.53H140v1.09h-6.82v1.25h6v1.1h-6v1.24H141v1.1h-5.19a9.3,9.3,0,0,0,5.09,4.5l-.92.83a15.33,15.33,0,0,1-6.78-4.39v4.82h-2.68V29.57a16.47,16.47,0,0,1-6.8,4.39l-.9-.77c3.93-1.85,5.09-4.24,5.25-4.56h-5.35v-1.1h7.8V26.29h-6v-1.1h6V23.94h-6.8V22.85h3.8c-.12-.31-.79-1.65-.91-1.92l.51-.24h-4v-1.1h2.8a12,12,0,0,0-1.46-2.89l1.08-.63a16.83,16.83,0,0,1,2.89,2.36l-2.34,1.16h2.56V17.17a6.33,6.33,0,0,0-.08-1.14l2.51,0c.14,0,.26,0,.26.18s0,.18-.22.43v2.93h1.42v-2.3a7.21,7.21,0,0,0-.08-1.26l2.57,0c.14,0,.26.06.26.2s-.06.2-.18.35v3h5.47v1.1h-4Zm-4,1.53a19.68,19.68,0,0,0,.89-1.83h-5.6a19.88,19.88,0,0,1,1.81,1.65l-1.44.51h5Zm6.35-5.44s.14.06.14.15,0,.14-.45.28-2.26,1.67-2.81,2l-1.14-.7a7.67,7.67,0,0,0,1.39-2.76Z"/><path class="cls-1" d="M160.63,18v1.1h-18.3V18h7.76V17.1c0-.24-.05-.91-.05-1.12l2.75,0s.13.06.13.24a1.69,1.69,0,0,1-.07.41V18Zm-.87,7.39v6.82c0,1.47-.35,2-2.24,2h-3L154.1,33a17.1,17.1,0,0,0,2,.14c.79,0,1-.06,1-.84V26.47H145.87v7.92h-2.71v-9Zm-2.34-1.16H145.53V20.26h11.89Zm-1.94,8H147.4v-4.5h8.08Zm-7.27-9.06h6.52V21.36h-6.52Zm1.73,8h3v-2.3h-3Z"/><path class="cls-1" d="M166.71,21.6a14,14,0,0,0-.83-2.74h-.51a21.07,21.07,0,0,1-2.79,2.56l-1-.61a10.92,10.92,0,0,0,2.77-5l2.69.69s.12,0,.12.13-.06.16-.24.32a7.81,7.81,0,0,0-.65.84H171v1.08h-3.24a17.06,17.06,0,0,1,1.81,1.83ZM172.45,25h7.86v1.1H162V25h7.76v-2h-6V22h6c0-.45,0-.88-.07-1.32l2.75.06a.31.31,0,0,1,.09.2,1.68,1.68,0,0,1-.09.33V22h6v1.1h-6Zm1,2.06a2.25,2.25,0,0,0-.08-.73l2.67.16c.24,0,.32.16.32.24s-.06.21-.22.55v.84h4.21v1.1H176.1v2.89c0,1.73-.53,2.12-2.22,2.12h-3.62L169.83,33a21.81,21.81,0,0,0,2.64.2c.78,0,.94-.18.94-1V29.24h-7.65a24.44,24.44,0,0,1,3.86,2.54l-2.5,1.86a18.51,18.51,0,0,0-2.44-3.75l.77-.65H162v-1.1h11.4Zm2.2-5.52a13.16,13.16,0,0,0-1.06-2.7h-.94a16.59,16.59,0,0,1-2,1.77l-.94-.55a8.2,8.2,0,0,0,2-4.28l2.67.69c.08,0,.08.08.08.11s-.19.32-.31.4l-.59.78h5.74v1.08h-3.78a19.56,19.56,0,0,1,2.09,1.77Z"/><path class="cls-1" d="M200,27.92V29h-7.81v3.25c0,1.63-.68,2.08-2.29,2.08h-3.44l-.34-1.26a16.43,16.43,0,0,0,2.18.18c.91,0,1.1-.12,1.1-1V29h-7.7v-1.1h7.7V25.78l2,.16A12,12,0,0,0,193,24.15h-7.88V23.07h11.46v1.38a35.58,35.58,0,0,1-4.39,2.67v.8ZM189.49,20a16,16,0,0,0-1.35-3.55l1-.61a18.52,18.52,0,0,1,3.16,3.06l-2,1.1h4.48l-1.14-.55a11,11,0,0,0,1.39-3.57l3.05,1.2a.11.11,0,0,1,.06.1.57.57,0,0,1-.41.41A27.22,27.22,0,0,1,195,20h4.55v3.8h-2.69V21.07H184.74v2.75h-2.66V20h2.85a21.49,21.49,0,0,0-1.73-3.26l1-.65a13.35,13.35,0,0,1,3.57,2.81L186.09,20Z"/><path class="cls-1" d="M208.09,28.26A15,15,0,0,1,206.46,26v8.35h-2.59V27.18a12.82,12.82,0,0,1-2.34,3.22l-.63-1a17,17,0,0,0,2.87-8.08h-2.46V20.24h2.56V17.72a17,17,0,0,0-.06-1.76l2.61.05a.3.3,0,0,1,.12.26.69.69,0,0,1-.08.33v3.64h1.71v1.08h-1.69A14.65,14.65,0,0,0,209,27.39Zm4-4.72a13.23,13.23,0,0,0,1.51,4.66,11.19,11.19,0,0,0,1.18-4.46l2.73.76c.1,0,.14.1.14.22s-.14.26-.25.35a14.56,14.56,0,0,1-2.44,5,15,15,0,0,0,5,3.34l-.77.92a15.84,15.84,0,0,1-5.48-2.95,14.48,14.48,0,0,1-6,2.95l-.77-.9a12.8,12.8,0,0,0,5.39-3.4,12.21,12.21,0,0,1-2.76-5.53Zm-4.44.87A10.34,10.34,0,0,0,210.43,20L212.94,21s.06,0,.06.08c0,.25-.11.33-.33.45a16.17,16.17,0,0,1-4.09,3.63Zm11.89-5.59v1.09H208.44V18.82h3.84V17.37c0-.18,0-.69-.06-1.38l2.69,0c.08,0,.14.18.14.26a.55.55,0,0,1-.08.31v2.22Zm-1.42,6.51A24.74,24.74,0,0,0,214.73,21l.79-.89a23.32,23.32,0,0,1,4.34,3.32Z"/><path class="cls-1" d="M54.68,7.48v.66H50v1.94c0,1-.41,1.24-1.37,1.24H46.6l-.2-.75a9.88,9.88,0,0,0,1.31.1c.54,0,.65-.07.65-.61V8.14H43.77V7.48h4.59V6.21l1.19.09a7.52,7.52,0,0,0,1-1.07h-4.7V4.59h6.83v.82A20.77,20.77,0,0,1,50,7v.48ZM48.43,2.75A9.45,9.45,0,0,0,47.62.62l.61-.36a11.19,11.19,0,0,1,1.89,1.83l-1.18.66h2.67l-.68-.33A6.44,6.44,0,0,0,51.76.28L53.58,1a.05.05,0,0,1,0,.06c0,.06-.07.18-.25.24a15.75,15.75,0,0,1-1.68,1.45h2.72V5h-1.6V3.39H45.6V5H44V2.75h1.7a11.61,11.61,0,0,0-1-1.95l.56-.39a7.94,7.94,0,0,1,2.14,1.68l-1,.66Z"/><path class="cls-1" d="M59.53,7.68a8.36,8.36,0,0,1-1-1.32v5H57V7A7.61,7.61,0,0,1,55.61,9l-.37-.6A10.22,10.22,0,0,0,57,3.54H55.48V2.9H57V1.4A9.22,9.22,0,0,0,57,.34l1.56,0a.18.18,0,0,1,.07.15.54.54,0,0,1,0,.2V2.9h1v.64h-1a8.61,8.61,0,0,0,1.49,3.63ZM62,4.87a7.61,7.61,0,0,0,.9,2.78A6.81,6.81,0,0,0,63.55,5l1.63.45c.06,0,.08.06.08.13s-.08.15-.15.21a8.72,8.72,0,0,1-1.45,3,8.76,8.76,0,0,0,3,2l-.46.55a9.52,9.52,0,0,1-3.27-1.76,8.85,8.85,0,0,1-3.6,1.76l-.46-.54a7.5,7.5,0,0,0,3.21-2,7.31,7.31,0,0,1-1.64-3.29Zm-2.66.51a5.93,5.93,0,0,0,1.63-2.66l1.51.64s0,0,0,0-.07.2-.2.27a9.37,9.37,0,0,1-2.44,2.17Zm7.1-3.33V2.7H59.74V2.05H62V1.19c0-.11,0-.41,0-.82l1.61,0s.08.1.08.15a.33.33,0,0,1,0,.19V2.05Zm-.84,3.89a15.06,15.06,0,0,0-2.06-2.61L64,2.81a13,13,0,0,1,2.59,2Z"/><path class="cls-1" d="M68.89,5.88a13.49,13.49,0,0,0-1.8-2.09l.42-.54a18.1,18.1,0,0,1,2.41,1.31Zm1.4.83c-.29.71-1.75,4.15-1.84,4.53,0,.13-.16.23-.21.19l-1.13-1A19.5,19.5,0,0,0,69.7,6.19Zm-1-3.93a14.51,14.51,0,0,0-1.72-2L68,.33A16.3,16.3,0,0,1,70.43,1.6Zm8.38-.43V3H74.78V5.38h3.31V6H74.64A33,33,0,0,1,72,9.85c1.7-.17,2.92-.31,4-.49a13.56,13.56,0,0,0-1.16-2.07l.59-.36a18.4,18.4,0,0,1,2.87,3.58l-1.47.87c-.11-.31-.25-.71-.54-1.39-1.17.26-2.41.51-6,1.16-.1.11-.14.13-.2.13s-.12,0-.14,0L69.53,10,71,9.94A24.6,24.6,0,0,0,72.77,6H69.93V5.38h3.22V3H70.34V2.35h2.81v-1A4.93,4.93,0,0,0,73.1.35l1.66,0a.13.13,0,0,1,.09.11.85.85,0,0,1-.07.22V2.35Z"/><path class="cls-1" d="M85.06.35c.12,0,.18.07.18.2a1.05,1.05,0,0,1-.07.3V3.23A9.82,9.82,0,0,0,86,7a7.4,7.4,0,0,0,4,3.71l-.39.63a8.49,8.49,0,0,1-5.17-4.2,8.74,8.74,0,0,1-5.16,4.18l-.47-.55A7.93,7.93,0,0,0,82.4,7.67a7.74,7.74,0,0,0,1.1-4.61V.83a3.37,3.37,0,0,0-.06-.5Z"/><path class="cls-1" d="M93.17.48c.14,0,.14.11.14.16a.58.58,0,0,1-.06.23v4c0,2.21-.06,4.16-2.26,6.26l-.54-.43c1.22-1.57,1.22-4,1.22-5.55V1.27c0-.27,0-.68,0-.81Zm3.67.45a.14.14,0,0,1,.14.16.28.28,0,0,1-.07.19V9.85H95.29V1.71c0-.2,0-.44,0-.81Zm3.92-.47c.08,0,.11.08.11.15a.43.43,0,0,1-.05.18V11.21H99.21V1.29a7,7,0,0,0,0-.85Z"/><path class="cls-1" d="M107.8,10.19v-1a6.34,6.34,0,0,0,0-.65l1.43,0c.09,0,.18,0,.18.15a.6.6,0,0,1-.06.19v1.95H104v.49h-1.47V9.2c0-.38,0-.48,0-.67l1.38,0c.06,0,.18,0,.18.14a.33.33,0,0,1-.07.18v1.32h1.12V8h-1.72V1.47H106a4.06,4.06,0,0,0,.53-1.22l1.62.29s.12,0,.12.13a.22.22,0,0,1-.12.19c-.12.08-.6.53-.69.61h4.44v3.6H105v.81h8.28v.64H105v.81h8c-.2,3.86-.6,4-2.26,4h-.8l-.26-.7a4.39,4.39,0,0,0,.74.08.51.51,0,0,0,.59-.4,11.29,11.29,0,0,0,.3-2.35h-4.64v2.21ZM105,2.93h5.3V2.12H105Zm5.3.66H105v.83h5.3Z"/><path class="cls-1" d="M125.06,7.48v.66H120.4v1.94c0,1-.41,1.24-1.37,1.24h-2l-.2-.75a9.61,9.61,0,0,0,1.3.1c.54,0,.66-.07.66-.61V8.14h-4.6V7.48h4.6V6.21l1.18.09a7.52,7.52,0,0,0,1-1.07h-4.7V4.59H123v.82A21.71,21.71,0,0,1,120.4,7v.48Zm-6.25-4.73A10,10,0,0,0,118,.62l.61-.36a11.19,11.19,0,0,1,1.89,1.83l-1.19.66H122l-.68-.33a6.53,6.53,0,0,0,.84-2.14L124,1a.06.06,0,0,1,0,.06c0,.06-.07.18-.25.24a14.45,14.45,0,0,1-1.67,1.45h2.72V5h-1.61V3.39H116V5h-1.58V2.75h1.7a12.79,12.79,0,0,0-1-1.95l.57-.39a7.88,7.88,0,0,1,2.13,1.68l-1,.66Z"/><path class="cls-1" d="M127.83,10.86v.47h-1.55V.8h10.05V11.33H134.8v-.47Zm7-9.42h-7V10.2h7Zm-.57,8.2a5.88,5.88,0,0,1-2.18-1.59V9.82h-1.49V8a7.82,7.82,0,0,1-2.12,1.59l-.51-.54a4.8,4.8,0,0,0,1.84-1.93h-1.18V4.89H134V7.13h-.36l.8.58s0,.12-.14.17l-.83.47a6.65,6.65,0,0,0,1.18.74Zm0-7.21v.66h-2.13v.7h2.58v.66H128V3.79h2.54v-.7h-2V2.43h2c0-.24,0-.28,0-.66H132s.09.06.09.15,0,.21,0,.24v.26Zm-4.13,4.06h2.54V5.55h-2.54Zm2.47.64a2.94,2.94,0,0,0,.47.73,3.29,3.29,0,0,0,.65-.73Z"/></g></g></svg>