<svg xmlns="http://www.w3.org/2000/svg" viewBox="0 0 230.25 36.75"><defs><style>.cls-1{fill:#00195e;}</style></defs><g id="レイヤー_2" data-name="レイヤー 2"><g id="text"><path class="cls-1" d="M21,1c2.06.1,4.16.05,6.26.05.21.36.05,1,.1,1.44-.9.31-1.63-.1-2.47.36A36.44,36.44,0,0,0,25,7.47c.79.77,3-.67,2.69,1.24,0,6.53.05,13-.06,19.55a53.81,53.81,0,0,0-6.35,0c-.37.31,0,1-.58,1.19l-3.25.05c-.37.26.05.57.16.77L19,31.55c1.84.47,2.36-1.43,3.2-2.46.79.25,1.16,1.33,1.68,1.95a3.1,3.1,0,0,0,.58.94c.79-.27,1.79-.11,2.52-.63A7.94,7.94,0,0,1,31.17,26c.31-1-.32-2.11-.16-3.13-.21-1.39.53-2.58.53-3.71a9.61,9.61,0,0,1-3.21-6.49c2-.21,3.89.93,5.52,2.16l.2-.05a20.14,20.14,0,0,1,1.22-2.11c1.57,1.08,2.51,3.09,3.19,4.89,1.21-.72,1.11.87,1.37,1.44a9.42,9.42,0,0,1-2.2,7.82,8.56,8.56,0,0,1-6.09,6.54c-.9,0-1.43.88-2.21,1.08a13.19,13.19,0,0,1-5.09,1c-.74.52-1.42,1.24-2.31,1.28-.68-1-1.31-2.36-2.73-2.41l-1.83,2.41a8.75,8.75,0,0,1-2.22-.82c-.2-1-1.4-.15-2.09-.25a10.49,10.49,0,0,1-6.71-2.53c0-.31.46-.1.57-.41-.48-.56-1.26-.62-1.89-.93a7.87,7.87,0,0,1-4.2-5.45c.31-.36,1-.05,1.31-.47A8.77,8.77,0,0,1,.51,17.3,7.66,7.66,0,0,1,1.77,18c.42-.66.16-1.65.48-2.42a7.63,7.63,0,0,1,1.47-2.67c1,.4,1.31,1.7,1.94,2.57,1.47-1.7,3.4-3.5,5.82-3.14a2.45,2.45,0,0,1-.15,1.8A10.16,10.16,0,0,1,8,18.9a13.41,13.41,0,0,1,.68,6.58,8.72,8.72,0,0,1,4.78,6.28,2.81,2.81,0,0,0,2.1.52c-.31-1.49,1.62-2.52,1.15-4.07A32.67,32.67,0,0,1,12.17,28c.26-6.38.05-13.79-.06-20.17l2.64-.21.2-.31-.16-4.42c-.79-.52-2.36.67-2.47-.83.11-.25-.15-.66.22-.77l5.93-.15c.36-.21.05-.67.26-1A10,10,0,0,1,20.78,0ZM19.41.32c-.63,0-.05,1-.79,1.08l-5.87.21C12.48,3,14.42,2,15.1,2.53a25.63,25.63,0,0,1,.27,5L15.1,8a5.23,5.23,0,0,0-2.56.32V13.6l.21.25c.25-.1.78.21.83-.25-.1-1.29.06-2.63-.1-4,0-.31.16-.82.58-.61v.05c3.72,0,7.45-.05,11-.11,2.06.06.48,2.27,1,3.4.2.47-.48,1,.1,1.39a2,2,0,0,0,1.1-.15,34.72,34.72,0,0,0,0-5.3c-.79-.42-1.94,0-2.68-.42,0-1.6-.2-3.14-.05-4.84s2.2.11,2.58-1.38c-1.79-.37-4.21,0-6.09-.16l-.37-.31C20.88.26,20,.26,19.41.32M16.69,2.58a.47.47,0,0,0,0,.67A31.84,31.84,0,0,0,23,3.2c-.05-.31.11-.52-.05-.77-2.15.1-4-.06-6.24.15M20.2,4.74c-1.16.16-2.42,0-3.62.21.05.26,0,.56.15.77a41.62,41.62,0,0,0,6.2-.15c.21-.31.05-.57,0-.88-.89-.05-1.94.16-2.73,0M19.88,7a22.18,22.18,0,0,1-3.25.16c0,.31-.26.67,0,1,2,.15,4.3-.31,6.3-.06.36-.3.05-.71.05-1.08-.79-.15-2.1.11-3.1,0m4.83,3.25c-3.15-.06-6.45,0-9.61.15a23.31,23.31,0,0,0,0,3.35c3,.41,6.34-.21,9.44.05l.37-.2.05-2.48ZM23.5,11.43c-2.31,0-4.77.05-7.19.1-.09.31-.16.78.06,1l7.13,0ZM6,15.76a2.3,2.3,0,0,0,.25,1.85l1.27-1.39a40.23,40.23,0,0,1,3.3-3.5,6.37,6.37,0,0,0-4.82,3m23.3-2.68a8.42,8.42,0,0,0,2.31,2.77c.68.68,1.21,1.6,2,1.86-.16-.82.32-1.65,0-2.47a8.7,8.7,0,0,0-4.36-2.16m-22.89,5c-.16.36-.36.77-.09,1.14l.52-.05a9.27,9.27,0,0,0,4.3-5.87c-1.89,1.23-3.3,3.24-4.73,4.78m29.3-4.52.68,6,.16.2L38,18a8.23,8.23,0,0,0-2.3-4.42M35,13.7A8.37,8.37,0,0,0,34.17,18c.25,1.24.31,2.57,1.14,3.6.43-.09.58-.61.79-.92-.1-2.32-.83-4.43-.83-6.69ZM4,13.75l.73,8.75H5l.83-2a10.06,10.06,0,0,0-1.52-6.74Zm25,0-.06.51c.69,2.53,2.63,5.2,5.21,6.08.15-.57-.38-1-.43-1.55-1.63-1.65-3.2-3.39-4.72-5m-25.57.16a8,8,0,0,0-1.1,4.68c.79.82,1.16,1.9,1.89,2.67-.1-2.42-.52-5-.63-7.35Zm16.64,1.33c-.57.36-.73-.67-1.31-.57-.16.16-.31.31-.26.52,1.63.92-.95,1.34-.26,2.26.73.31,1-.61,1.52-.92.47-.06.57.56.89.72s.63.36.79,0-.47-.67-.74-1c-.63-.72.74-.62.63-1.33-.36-.88-.94,0-1.26.35M26,13.63c-.45,1.64-2.59.51-3.69,1.13a.88.88,0,0,0,.25,1c1.11,0,2.47-.44,3.5.13-.06.44.07.89-.38,1.14L22.21,17l-.19.68c1,1,2.65.39,4,.51a1.55,1.55,0,0,1-.14,1.4,10.67,10.67,0,0,0-3.48.07c-.2.63,0,1.39.7,1.26,1.5-.13,2.66,0,4.08-.19l.07-6.15c.19-.89-.59-1.08-1.23-.95m-13.44,1.3.16,5.46a33.31,33.31,0,0,0,3.35.15c.27.05.69-.15.53-.51a.44.44,0,0,0-.37-.41c-1-.26-2.83.77-2.73-.83.94-.46,2,0,3-.3,0-.31.16-.83-.16-1.09l-2.79.21-.15-.21a.83.83,0,0,1,.1-1,10,10,0,0,0,3-.26c0-.26.05-.56,0-.82-.74-.1-2,0-2.78,0,0-.61-.9-.72-1.16-.31m7.24,3.91c-.37-.25-.53-.77-1-.87-1.52.21.47.87.11,1.55-.32.2-.37.66-.79.66,0,.26-.21.47.11.62.36.46.88-.1,1.15-.36.52-.67,1.05.15,1.37.41a1,1,0,0,0,.68-.1c.36-.52-.32-.72-.63-1-.48-.67.57-.88.63-1.44-.47-.88-1.11.25-1.63.56M38.94,18a9,9,0,0,0-3.67,8.49.43.43,0,0,0,.52-.1l3.15-7.57Zm-38,.05L4,25.89l.32.31a7.8,7.8,0,0,0-1.31-6c-.64-.72-1.11-1.8-2.11-2.11m-.36.52a7.85,7.85,0,0,0,.53,5.05c.62.92,1.09,2.87,2.62,2.46-1.16-2.41-2-4.94-2.94-7.46ZM39.3,19c-.94,2.42-1.89,4.89-2.83,7.2.47-.15,1.16.06,1.57-.46a9.91,9.91,0,0,0,1.53-6.33Zm-32.23.52c-1.41,2.16-2.57,4.37-2.15,7.09.26.06.58.42.89.26.32-2.47,1-4.94,1.37-7.35Zm.69.25c-.84,2.37-1,5-1.58,7.46.32.26.58.83,1.1.63a9.67,9.67,0,0,0,.48-8.09m24.62.31c.42,2.32,1.63,4.53,1.88,7.05.16-.05.37.05.42-.15-.15-2,.74-4.27-.72-6-.59-.16-1-.78-1.58-.88m-.58.15A8.69,8.69,0,0,0,32.9,28c.32.21.63-.09.84-.35a35.72,35.72,0,0,0-1.94-7.37m-4.57,1.08c-4.88,0-9.6.21-14.33.05l-.15.21c-.16,1.75-.06,3.91-.11,5.77,0,.47.57.41.89.3.26-1.69,0-3.6.26-5.29,4,.09,7.88-.42,12.18-.06l.21.26c-.05,1.75.16,3.4.11,5.2a.65.65,0,0,0,.84-.15Zm-10,2.22c-.89.36-.1,1.54-.47,2.21.69.62,1.58,0,2.37.36a.87.87,0,0,1,0,.88L15.74,27c-.32-1,.1-2.16-.11-3.24l-.16-.15c-.26.05-.62-.11-.79.15V27.6a18.57,18.57,0,0,0,4.15,0,.42.42,0,0,1,.27.46c-.43.31-.9.15-1.43.1s-.47.57-.47.88L20.62,29c.26-.26-.06-.78.21-1,1.21-.46,3,.21,4.31-.31.31-1.33-.06-2.31.05-3.7l-.17-.3a3.5,3.5,0,0,0-.83.15v2.77c-1.05.67-2.47,0-3.57.31V26l1.05-.21c.47-.2,1,.52,1.47-.15A5.52,5.52,0,0,0,23,23.64c-2-.16-3.88.2-5.78-.11m4.73.87c-1.31.16-2.63-.1-3.94.1v.37l3.68.1c.15,0,.42-.15.31-.41ZM8.44,26.2a7,7,0,0,0,1.68,5.56,2,2,0,0,0,1.26-.1,18.33,18.33,0,0,0-2.1-4.17c-.32-.41-.42-1.08-.84-1.29m.84.06A48,48,0,0,0,12,31.66c.37.15.79.32,1.1,0a7.74,7.74,0,0,0-3.83-5.4m-7.71.15,0,.26c2.47,2,5.15,3.55,7.67,5.31.16,0,.21-.11.21-.32C8.12,28.83,5,26.2,1.57,26.41m25.82,5.14,1.1.06c1-1.65,1.84-3.35,2.63-5.05a6.85,6.85,0,0,0-3.73,5m9.35-4.94c-2.57.83-5.31,2.78-5.89,5.57h.37l5.46-5.26Zm-5.1.21c-.79,1.34-1.53,2.78-2.36,4.17l-.1.77,1.2.16a7.6,7.6,0,0,0,1.26-5.1M1.5,27.13c.22,1.8,1.8,3.14,3.26,4.12,1.22.41,2.42,1.65,3.68.93.1-.06.05-.2,0-.31C6,30.42,3.82,28.73,1.5,27.13m30.2,5.05a1.1,1.1,0,0,0,.1.61,7.78,7.78,0,0,0,5.3-5.61c-1.83,1.5-3.57,3.3-5.4,5M7.87,27.75c-.06.2-.48.36-.27.67.06.15.31.36.47.15a1.66,1.66,0,0,0-.2-.82m24.3.06L32,29c.16.05.26-.16.37-.26.47-.31,0-.72-.21-1m-9.82,1.84C22,30.79,19.93,31.51,21,32.9a4.71,4.71,0,0,0,2.93-1,5.9,5.9,0,0,0-1.57-2.22m-5.51.42c-.21.77-1.63,1.59-.62,2.31.72.26,1.45,1.24,2.3.77.52-1.49-.85-2.26-1.68-3.08m3.51,1.8c-.42-.16-.83.31-1.25.05a3.08,3.08,0,0,0,0,2.16c.48-.36.9.57,1.21-.1a4.69,4.69,0,0,0,0-2.11m7.3.2A9.21,9.21,0,0,0,22,33.62c0,.21.32.1.43.31,2.61-.42,5.24-.78,7.82-1.14l.26-.25a7.44,7.44,0,0,0-2.84-.47m-18.21.37a4.06,4.06,0,0,0-1.89.61c2.89.51,6,.46,9,1,.2-.05.57-.31.52-.62-2.3-.77-5-1.6-7.61-1m21.1.66c-2.47.41-4.88.73-7.25,1.19,0,.31.37.46.58.67a10.38,10.38,0,0,0,6.67-1.65Zm-22.67.41-.17.16c2,1.6,5,1.8,7.57,1.49.26-.2.78-.36.73-.82-2.62-.26-5.4-.47-8.13-.83M21,33.67c-1.2,1,.79,1.6,1,2.47.67.51,1.1-.46,1.57-.78-.58-.82-1.73-1-2.58-1.69m-2.72.1c-1.16-.1-2,1-2.63,1.91a2.26,2.26,0,0,0,1.58.62,5.07,5.07,0,0,0,1.31-2Z"/><path class="cls-1" d="M64.35,21.62v5.16H49.81a12.79,12.79,0,0,1-3.34,8.15l-1-.73a15.21,15.21,0,0,0,1.54-7.38V18.33h7.36v-.77c0-.34,0-.78-.08-1.17l2.72,0c.18,0,.35,0,.35.21a.78.78,0,0,1-.15.4v1.29h8v1.13H59.45v2.16Zm-7.78,7.54v1.13H53.76V33c1.23-.2,2.07-.34,2.9-.5l-.29,1.21c-1.36.44-4.69,1.17-6.36,1.53a1,1,0,0,1-.53.28c-.12,0-.19-.06-.27-.3L48.7,33.6a13.46,13.46,0,0,0,2.36-.22v-4.9A9.62,9.62,0,0,0,51,27.24l2.53,0c.16,0,.37,0,.37.26a1.11,1.11,0,0,1-.12.42v1.21ZM52,19.46H49.81v2.16H52Zm0,3.29H49.81v2.9H52Zm4.83-3.29H54.62v2.16H56.8Zm0,3.29H54.62v2.9H56.8Zm7.86,6.61c0,.06.1.12.1.18s-.16.19-.53.25A26.65,26.65,0,0,1,60,30.9v2.4c0,.54,0,.7.58.7h1.29c.6,0,1.11,0,1.22-2.6a8.34,8.34,0,0,0,2.38.91c-.27,1.41-.55,2.8-2.55,2.8H59c-1.48,0-1.75-.5-1.75-1.73v-5c0-.25,0-.83-.06-1.2l2.51.05c.17,0,.37,0,.37.22a2.09,2.09,0,0,1-.1.42v1.76a10.79,10.79,0,0,0,3.33-1.88Zm-5.21-3.71h2.21v-2.9H59.45Z"/><path class="cls-1" d="M74.85,27.43a.28.28,0,0,1,.28.24,1,1,0,0,1-.18.38c-.19,3.93-2.72,6.36-7.69,7.26l-.85-1.11c3.44-.76,5.47-2.74,5.47-6.29a2.91,2.91,0,0,0-.06-.6ZM70.63,16.52c.12,0,.18.1.18.22a.7.7,0,0,1-.06.3V27.65H68.06V17.83A12.16,12.16,0,0,0,68,16.47Zm13.62,10.3h-11V17h11Zm-2.66-8.71H76v3.17h5.57ZM76,25.71h5.57V22.4H76ZM79.08,35c-2,0-2.32-.56-2.32-2.08V28.86a14.72,14.72,0,0,0-.06-1.59l2.8,0c.06,0,.16.06.16.22a1.13,1.13,0,0,1-.06.36V33c0,.55,0,.87.9.87h1.55c.84,0,1.19-.18,1.62-3.51a6.47,6.47,0,0,0,2.49.81c-.7,3.83-1.73,3.83-3,3.83Z"/><path class="cls-1" d="M96.72,33.32V31.58a9.58,9.58,0,0,0-.06-1.13l2.51,0c.16,0,.31,0,.31.26a.86.86,0,0,1-.11.33v3.35H90v.84H87.4V31.6c0-.64,0-.83,0-1.15l2.43,0c.1,0,.3,0,.3.24A.46.46,0,0,1,90,31v2.28h2V29.5h-3V18.31h4.57a6.94,6.94,0,0,0,.92-2.1l2.84.51c.06,0,.21.06.21.22a.37.37,0,0,1-.21.32c-.2.14-1,.91-1.21,1h7.8V24.5H91.74v1.39h14.52V27H91.74v1.39h14c-.35,6.64-1,6.92-4,6.92h-1.4l-.45-1.21a7.86,7.86,0,0,0,1.29.14c.62,0,.85-.18,1-.68a19.86,19.86,0,0,0,.54-4.06H94.64v3.82Zm-5-12.49H101V19.44h-9.3ZM101,22h-9.3v1.43H101Z"/><path class="cls-1" d="M124.08,23.19h-5.35v1.86h6v1.13h-6a9.18,9.18,0,0,1-.33,1.95h8.33v1.13h-7c.72,1.45,2.14,3.69,7.22,5l-.7,1c-5.72-1.15-7.71-3.3-8.91-4.9-2.4,3.45-5.8,4.22-8.9,4.9l-.74-1c1.83-.4,5.82-1.55,7.38-5.06H108V28.13h7.5a10.11,10.11,0,0,0,.4-1.95h-6V25.05h6V23.19h-5.33v-1h-2.31V18.51h7.66V17.46c0-.12,0-.86,0-1.07l2.77,0c.11,0,.25,0,.25.25a.66.66,0,0,1-.1.3v1.55h7.63v3.73h-2.39Zm-.47-1.13V19.64H111.1v2.42h4.82v-.82c0-.55,0-.85,0-1.15l2.67,0c.23,0,.23.14.23.22a.71.71,0,0,1-.07.34v1.39Z"/><path class="cls-1" d="M143.67,21.54c.1.06.15.1.15.16s-.09.14-.4.18a20.21,20.21,0,0,1-1.95,1.57h5v1.11h-7.14v1.29h6.32V27h-6.32v1.27h8.17v1.13h-5.43c.39.79,1.58,3,5.32,4.62l-1,.85a16.18,16.18,0,0,1-7.1-4.5v4.94h-2.8V30.35a17.18,17.18,0,0,1-7.11,4.5l-.95-.79c4.11-1.89,5.33-4.35,5.49-4.68h-5.59V28.25h8.16V27h-6.33V25.85h6.33V24.56h-7.11V23.45h4c-.13-.32-.83-1.69-.95-2l.54-.24h-4.18V20.11h2.92a11.38,11.38,0,0,0-1.52-3l1.13-.64a16.94,16.94,0,0,1,3,2.42l-2.44,1.19h2.67V17.63a6.72,6.72,0,0,0-.08-1.18l2.63,0c.14,0,.27,0,.27.18s0,.18-.23.44v3h1.48V17.75a7.66,7.66,0,0,0-.08-1.3l2.69,0c.15,0,.27.06.27.2s-.06.2-.18.36v3.07h5.72v1.13h-4.2Zm-4.15,1.57c.3-.56.61-1.15.92-1.87h-5.86a17.6,17.6,0,0,1,1.89,1.69l-1.5.52h5.2Zm6.64-5.59s.14.06.14.16,0,.15-.47.29-2.36,1.71-2.94,2.05l-1.19-.72a7.88,7.88,0,0,0,1.46-2.82Z"/><path class="cls-1" d="M168.11,18.45v1.13H149V18.45h8.13v-.91c0-.24-.06-.92-.06-1.15l2.88,0s.14.06.14.25a1.59,1.59,0,0,1-.08.42v1.35Zm-.9,7.58v7c0,1.52-.37,2.1-2.35,2.1h-3.12l-.46-1.27a18.87,18.87,0,0,0,2,.14c.82,0,1-.06,1-.87v-6H152.67v8.13h-2.84V26Zm-2.45-1.19H152.32V20.79h12.44Zm-2,8.25h-8.46V28.48h8.46Zm-7.62-9.29h6.83V21.92h-6.83ZM156.92,32h3.13V29.6h-3.13Z"/><path class="cls-1" d="M174.48,22.16a13.44,13.44,0,0,0-.87-2.8h-.53A22.94,22.94,0,0,1,170.16,22l-1-.62a11.17,11.17,0,0,0,2.9-5.15l2.82.71s.12,0,.12.14-.06.16-.24.32a6.36,6.36,0,0,0-.68.87h4.85v1.11h-3.39a17.82,17.82,0,0,1,1.89,1.88Zm6,3.51h8.23V26.8H169.56V25.67h8.13v-2h-6.32V22.53h6.32c0-.47-.05-.91-.09-1.36l2.88.07a.31.31,0,0,1,.11.2,2.13,2.13,0,0,1-.11.34v.75h6.28v1.13h-6.28Zm1,2.12a2.35,2.35,0,0,0-.08-.75l2.8.16c.24,0,.32.17.32.25s-.06.22-.22.56v.87h4.4V30h-4.4v3c0,1.78-.56,2.18-2.33,2.18H178.2l-.45-1.25a23.91,23.91,0,0,0,2.75.2c.83,0,1-.18,1-1.07V30h-8a25.59,25.59,0,0,1,4,2.6l-2.61,1.92a19.39,19.39,0,0,0-2.55-3.86l.8-.66h-3.6V28.88h11.93Zm2.3-5.67a13,13,0,0,0-1.11-2.76h-1a17.54,17.54,0,0,1-2.06,1.81l-1-.56a8.32,8.32,0,0,0,2.12-4.4l2.8.71c.08,0,.08.08.08.12s-.21.32-.33.4c-.25.33-.35.47-.62.81h6v1.11h-4a20.92,20.92,0,0,1,2.18,1.81Z"/><path class="cls-1" d="M209.29,28.66v1.13h-8.17v3.32c0,1.68-.72,2.14-2.4,2.14h-3.61L194.77,34a17.79,17.79,0,0,0,2.28.18c.94,0,1.15-.12,1.15-1v-3.3h-8.06V28.66h8.06v-2.2l2.08.16A12.12,12.12,0,0,0,202,24.78h-8.24V23.67h12v1.42a38.34,38.34,0,0,1-4.59,2.74v.83Zm-11-8.15a16.35,16.35,0,0,0-1.42-3.65l1.07-.63a19.54,19.54,0,0,1,3.32,3.15l-2.08,1.13h4.69l-1.2-.57a11.44,11.44,0,0,0,1.47-3.67l3.18,1.23a.11.11,0,0,1,.07.11A.59.59,0,0,1,207,18,27.77,27.77,0,0,1,204,20.51h4.77V24.4H206V21.62H193.35v2.82h-2.78V20.51h3a22,22,0,0,0-1.81-3.35l1-.66a13.61,13.61,0,0,1,3.74,2.88l-1.7,1.13Z"/><path class="cls-1" d="M217.79,29a15.39,15.39,0,0,1-1.71-2.28v8.57h-2.71v-7.4a13.28,13.28,0,0,1-2.45,3.31l-.66-1a17.07,17.07,0,0,0,3-8.29h-2.57V20.77h2.68V18.19a15.48,15.48,0,0,0-.07-1.82l2.74.06a.33.33,0,0,1,.12.27.77.77,0,0,1-.08.34v3.73h1.79v1.11H216.1a14.94,14.94,0,0,0,2.61,6.23ZM222,24.16a13.17,13.17,0,0,0,1.58,4.78,11.45,11.45,0,0,0,1.23-4.58l2.86.79c.11,0,.15.1.15.22s-.15.26-.27.36A14.87,14.87,0,0,1,225,30.9a15.58,15.58,0,0,0,5.22,3.42l-.8,1a17,17,0,0,1-5.74-3,15.56,15.56,0,0,1-6.31,3l-.8-.93a13.26,13.26,0,0,0,5.63-3.49,12.47,12.47,0,0,1-2.88-5.66Zm-4.65.89a10.47,10.47,0,0,0,2.86-4.58l2.63,1.09s.06,0,.06.08c0,.26-.12.34-.35.46a16.63,16.63,0,0,1-4.28,3.73Zm12.44-5.73v1.11H218.16V19.32h4V17.83c0-.18,0-.71-.06-1.42l2.82,0c.08,0,.14.19.14.27A.62.62,0,0,1,225,17v2.28ZM228.34,26a25.7,25.7,0,0,0-3.6-4.47l.82-.91A24,24,0,0,1,230.11,24Z"/><path class="cls-1" d="M57.23,7.68v.67H52.36v2c0,1-.43,1.28-1.44,1.28H48.78l-.21-.77a10.5,10.5,0,0,0,1.36.1c.56,0,.69-.07.69-.62v-2H45.81V7.68h4.81V6.37l1.24.09a7.71,7.71,0,0,0,1-1.09H47.94V4.71H55.1v.84a23.56,23.56,0,0,1-2.74,1.64v.49ZM50.69,2.82A10,10,0,0,0,49.84.64l.64-.37a11.16,11.16,0,0,1,2,1.87l-1.24.68H54l-.71-.34A6.88,6.88,0,0,0,54.18.29l1.9.74a.07.07,0,0,1,0,.05.34.34,0,0,1-.26.26A16.17,16.17,0,0,1,54.1,2.82H57V5.14H55.27V3.48H47.72V5.17H46.06V2.82h1.78a12.16,12.16,0,0,0-1.08-2l.59-.4a8.44,8.44,0,0,1,2.24,1.72l-1,.68Z"/><path class="cls-1" d="M62.3,7.88a9.09,9.09,0,0,1-1-1.36v5.12H59.66V7.22a7.89,7.89,0,0,1-1.46,2l-.39-.62A10.2,10.2,0,0,0,59.6,3.64H58.07V3h1.59V1.43c0-.39,0-.71,0-1.08l1.63,0a.18.18,0,0,1,.07.15.41.41,0,0,1,0,.21V3h1.07v.67H61.3a8.76,8.76,0,0,0,1.56,3.72ZM64.83,5a8,8,0,0,0,1,2.85,6.88,6.88,0,0,0,.73-2.73l1.71.47c.06,0,.09.06.09.13s-.09.15-.16.22A8.87,8.87,0,0,1,66.62,9a9.32,9.32,0,0,0,3.12,2l-.48.57a10.06,10.06,0,0,1-3.42-1.81,9.21,9.21,0,0,1-3.77,1.81l-.48-.56A8,8,0,0,0,65,9a7.27,7.27,0,0,1-1.72-3.38Zm-2.77.53a6.15,6.15,0,0,0,1.7-2.74l1.58.65s0,0,0,.05-.07.21-.21.28A9.82,9.82,0,0,1,62.61,6Zm7.42-3.42v.66h-7V2.11h2.4V1.22c0-.11,0-.42,0-.84l1.68,0s.09.11.09.16a.43.43,0,0,1-.05.19V2.11Zm-.88,4a15.14,15.14,0,0,0-2.15-2.67l.49-.54a14.71,14.71,0,0,1,2.72,2Z"/><path class="cls-1" d="M72.1,6a14.42,14.42,0,0,0-1.88-2.14l.43-.55a18.48,18.48,0,0,1,2.53,1.34Zm1.46.86c-.29.73-1.83,4.26-1.91,4.64,0,.13-.18.24-.22.19l-1.2-1A19.71,19.71,0,0,0,73,6.36Zm-1-4a14.94,14.94,0,0,0-1.8-2l.4-.49a17.42,17.42,0,0,1,2.57,1.3Zm8.77-.44v.66h-3V5.53h3.47v.66H78.11a34.29,34.29,0,0,1-2.75,3.92c1.78-.18,3.06-.32,4.19-.5a12.22,12.22,0,0,0-1.22-2.13L79,7.11a18.73,18.73,0,0,1,3,3.68l-1.54.89c-.11-.32-.26-.73-.56-1.42-1.23.26-2.53.51-6.25,1.19-.11.11-.15.13-.21.13a.17.17,0,0,1-.15-.06l-.48-1.24c.74,0,1.39-.07,1.49-.08a24.44,24.44,0,0,0,1.9-4h-3V5.53h3.36V3.07H73.62V2.41h2.93V1.34a6.74,6.74,0,0,0,0-1l1.74,0a.14.14,0,0,1,.08.12.55.55,0,0,1-.07.21V2.41Z"/><path class="cls-1" d="M89,.36q.18,0,.18.21a.84.84,0,0,1-.07.3V3.31A10.08,10.08,0,0,0,90,7.21,7.78,7.78,0,0,0,94.13,11l-.4.63a8.78,8.78,0,0,1-5.41-4.3,9.19,9.19,0,0,1-5.4,4.29l-.5-.56a8.36,8.36,0,0,0,3.82-3.22,7.79,7.79,0,0,0,1.15-4.73V.86a3.46,3.46,0,0,0-.06-.52Z"/><path class="cls-1" d="M97.51.5c.15,0,.15.1.15.15a.59.59,0,0,1-.06.24V5c0,2.26-.07,4.27-2.37,6.42L94.66,11c1.28-1.61,1.28-4.07,1.28-5.69v-4c0-.27,0-.7,0-.83Zm3.84.45a.15.15,0,0,1,.15.17.26.26,0,0,1-.07.19v8.8h-1.7V1.76c0-.21,0-.46,0-.83Zm4.1-.48c.09,0,.12.09.12.16a.43.43,0,0,1,0,.18v10.7h-1.69V1.33a7.51,7.51,0,0,0,0-.88Z"/><path class="cls-1" d="M112.83,10.46v-1a5.09,5.09,0,0,0,0-.67l1.5,0c.1,0,.18,0,.18.15a.42.42,0,0,1-.06.19v2H108.8v.51h-1.53V9.44a5.29,5.29,0,0,0,0-.69l1.45,0c.06,0,.19,0,.19.14a.27.27,0,0,1-.08.18v1.36H110V8.19h-1.8V1.51h2.72a4.1,4.1,0,0,0,.55-1.26l1.7.31a.14.14,0,0,1,.12.13.22.22,0,0,1-.12.19c-.12.08-.63.54-.73.63h4.66V5.2h-7.22V6h8.66v.66h-8.66v.83h8.36c-.21,4-.63,4.13-2.37,4.13H115l-.27-.72a4.72,4.72,0,0,0,.78.08c.37,0,.5-.1.61-.41a11.32,11.32,0,0,0,.32-2.41h-4.86v2.27Zm-3-7.45h5.55V2.18h-5.55Zm5.55.67h-5.55v.86h5.55Z"/><path class="cls-1" d="M130.89,7.68v.67H126v2c0,1-.43,1.28-1.43,1.28h-2.15l-.21-.77a10.5,10.5,0,0,0,1.36.1c.57,0,.69-.07.69-.62v-2h-4.81V7.68h4.81V6.37l1.24.09a7.65,7.65,0,0,0,1-1.09H121.6V4.71h7.15v.84A23.56,23.56,0,0,1,126,7.19v.49Zm-6.55-4.86A9.46,9.46,0,0,0,123.5.64l.64-.37a11.47,11.47,0,0,1,2,1.87l-1.24.68h2.8L127,2.48a6.64,6.64,0,0,0,.87-2.19l1.9.74a.05.05,0,0,1,0,.05.34.34,0,0,1-.26.26,16.85,16.85,0,0,1-1.75,1.48h2.84V5.14h-1.68V3.48h-7.55V5.17h-1.65V2.82h1.78a13,13,0,0,0-1.08-2l.59-.4a8.38,8.38,0,0,1,2.23,1.72l-1,.68Z"/><path class="cls-1" d="M133.78,11.15v.48h-1.62V.82h10.52V11.63h-1.59v-.48Zm7.31-9.67h-7.31v9h7.31Zm-.6,8.41a6.25,6.25,0,0,1-2.29-1.63v1.81h-1.56V8.22a7.9,7.9,0,0,1-2.22,1.63l-.53-.56a5,5,0,0,0,1.93-2h-1.24V5h5.71v2.3h-.38l.83.59s0,.13-.14.18l-.86.48a7.75,7.75,0,0,0,1.22.76Zm-.05-7.4v.68H138.2v.72h2.7v.67H134V3.89h2.67V3.17h-2.15V2.49h2.15c0-.24,0-.29,0-.67h1.55a.16.16,0,0,1,.08.15s-.05.21-.05.25v.26Zm-4.32,4.17h2.65v-1h-2.65Zm2.57.66a3.46,3.46,0,0,0,.49.75,3.54,3.54,0,0,0,.69-.75Z"/></g></g></svg>